# xmcd
#
# Track frame offsets: 
#        150
#        15050
#        49465
#        63357
#        74847
#        84032
#        96380
#        109865
#        122735
#        138535
#        151077
#        167875
#        181587
#        193942
#        204702
#        218862
#        231080
#
# Disc length: 3285 seconds
#
# Revision: 3
# Processed by: cddbd v1.5.2PL0 Copyright (c) Steve Scherf et al.
# Submitted via: ExactAudioCopy v0.99pb4
#
DISCID=ef0cd311
DTITLE=Various Artist - The Story of Jazz Vol.5 - The Rebelling Bop
DYEAR=1900
DGENRE=Jazz
TTITLE0=Charlie Christian - Gone With "What" Wind
TTITLE1=Lester Young - Sunday
TTITLE2=Charlie Parker - Bird Feathrers
TTITLE3=Dizzy Gillespie - Something For You
TTITLE4=Art Tatum - Liza
TTITLE5=Terry Gibbs - Tiny's Con
TTITLE6=Dexter Gordon - Lullaby In Rhythm
TTITLE7=Chubby Jackson - Boomsie
TTITLE8=Fats Navarro - Go
TTITLE9=J. J. Johnson - Tea Pot
TTITLE10=Kai Winding - Waterworks
TTITLE11=Don Lanphere - Spider's Webb
TTITLE12=Sonny Stitt - Fine And Dandy
TTITLE13=Al Haig - Opus Caprice
TTITLE14=Leo Parker - Who's Mad
TTITLE15=Metronome All-Stars - Double Date
TTITLE16=Bud Powell - Conception
EXTD=
EXTT0=
EXTT1=
EXTT2=
EXTT3=
EXTT4=
EXTT5=
EXTT6=
EXTT7=
EXTT8=
EXTT9=
EXTT10=
EXTT11=
EXTT12=
EXTT13=
EXTT14=
EXTT15=
EXTT16=
PLAYORDER=
